<?xml version="1.0" encoding="utf-8"?><svg xmlns="http://www.w3.org/2000/svg" viewBox="0 0 172.36 188.11"><g id="Layer_2" data-name="Layer 2"><g id="Layer_1-2" data-name="Layer 1"><path d="M146.94,59.36c-.26-.26-.52-.5-.79-.75a26.43,26.43,0,0,0,3.28-12.76,26.75,26.75,0,0,0-26.72-26.72c-.37,0-.73,0-1.09,0a26.46,26.46,0,0,0-6.71-11.35,26.76,26.76,0,0,0-37.79,0l-.74.79A26.67,26.67,0,0,0,36.89,32.05q0,.54,0,1.08a26.7,26.7,0,0,0-11.34,44.5c.25.26.52.5.78.75a26.45,26.45,0,0,0-3.27,12.76,26.75,26.75,0,0,0,26.72,26.72q.54,0,1.08,0A26.62,26.62,0,0,0,76.49,137h0a26.54,26.54,0,0,0,18.89-7.82c.26-.26.5-.53.75-.79a26.46,26.46,0,0,0,12.76,3.28,26.75,26.75,0,0,0,26.72-26.73c0-.36,0-.72,0-1.08a26.68,26.68,0,0,0,11.34-44.5m-12.79,36.4a24.68,24.68,0,0,0-1.8-3.65,26.82,26.82,0,0,0-5-6.46,76.85,76.85,0,0,0-13.76-11.27c-7.19-4.76-13.21-7.74-18.31-9,3.31-1.76,8.37-3.56,16-5.13a70.1,70.1,0,0,1,16.2-1.61h.14a20,20,0,0,1,6.15.8l.12,0a18.1,18.1,0,0,1,2.42.79l1.92,1.17a20.06,20.06,0,0,1,3.7,2.9,19.72,19.72,0,0,1-7.45,32.58c-.11-.34-.25-.72-.4-1.12M108.9,124.68a19.68,19.68,0,0,1-8.57-2c.22-.42.46-.92.69-1.48a25.24,25.24,0,0,0,1.13-3.44,26.48,26.48,0,0,0,1-8.08A76.78,76.78,0,0,0,101.45,92c-1.73-8.45-3.88-14.82-6.58-19.33,3.59,1.09,8.44,3.39,15,7.72a69.82,69.82,0,0,1,12.58,10.28l.13.13a19.72,19.72,0,0,1,3.77,4.9l.07.11a18,18,0,0,1,1.15,2.27l.53,2.19a19.73,19.73,0,0,1-19.17,24.4M59,116.38a23.46,23.46,0,0,0,3.63-1.79,26.82,26.82,0,0,0,6.46-5A76.85,76.85,0,0,0,80.37,95.86c4.76-7.19,7.74-13.22,9-18.31,1.77,3.31,3.57,8.36,5.13,16a70,70,0,0,1,1.62,16.13v.21a19.56,19.56,0,0,1-.8,6.14l0,.12a17.8,17.8,0,0,1-.77,2.41l-1.19,1.94A19.73,19.73,0,0,1,76.5,130h0a19.72,19.72,0,0,1-18.62-13.22c.35-.11.73-.25,1.14-.41M33.57,83.28A24.2,24.2,0,0,0,37,84.38a26.74,26.74,0,0,0,8.09,1.06c.58,0,1.18,0,1.78,0a80.58,80.58,0,0,0,15.91-1.79C71.2,82,77.56,79.81,82.07,77.11c-1.09,3.59-3.39,8.44-7.71,15a70.62,70.62,0,0,1-10.29,12.58l-.13.12a19.71,19.71,0,0,1-4.89,3.78l-.12.06a16.91,16.91,0,0,1-2.25,1.16l-2.2.53a20,20,0,0,1-4.67.56A19.73,19.73,0,0,1,32,82.57c.44.23,1,.47,1.53.71m4.8-42a24.16,24.16,0,0,0,1.8,3.64,26.78,26.78,0,0,0,5,6.46A77.57,77.57,0,0,0,58.89,62.61c7.29,4.82,13.24,7.77,18.3,9-3.31,1.76-8.36,3.56-16,5.12A70.42,70.42,0,0,1,45,78.38v.07h-.12v-.08h-.08a19.94,19.94,0,0,1-6.14-.8l-.12,0a16.52,16.52,0,0,1-2.43-.79l-1.91-1.17A19.72,19.72,0,0,1,38,40.11c.11.35.24.73.4,1.13M63.61,12.31a19.68,19.68,0,0,1,8.57,2c-.22.43-.46.93-.69,1.51a23.93,23.93,0,0,0-1.12,3.41,26.49,26.49,0,0,0-1.06,8.08A77.4,77.4,0,0,0,71.07,45c1.72,8.45,3.87,14.82,6.57,19.33-3.59-1.09-8.44-3.4-15-7.72A70.08,70.08,0,0,1,50.1,46.31L50,46.18a20,20,0,0,1-3.78-4.9l-.06-.11a16.32,16.32,0,0,1-.83-1.54c-.1-.2-.2-.41-.28-.61a.93.93,0,0,0-.05-.1l-.53-2.21a19.73,19.73,0,0,1,19.17-24.4m49.9,8.3a22.61,22.61,0,0,0-3.63,1.79,26.68,26.68,0,0,0-6.47,5A77.12,77.12,0,0,0,92.15,41.13c-4.76,7.19-7.75,13.22-9,18.32C81.36,56.13,79.56,51.08,78,43.4a70.61,70.61,0,0,1-1.62-16.13v-.21a19.89,19.89,0,0,1,.79-6.14l0-.12A17.2,17.2,0,0,1,78,18.38l1.17-1.93a19.72,19.72,0,0,1,35.48,3.76c-.34.1-.73.24-1.13.4M139,53.73a23.85,23.85,0,0,0-3.43-1.12,26.45,26.45,0,0,0-8.08-1.06,76.84,76.84,0,0,0-17.7,1.76C101.32,55,95,57.18,90.44,59.88c1.1-3.59,3.4-8.44,7.72-15a70.18,70.18,0,0,1,10.28-12.58l.13-.12a19.81,19.81,0,0,1,4.91-3.78l.1-.06a16.93,16.93,0,0,1,2.26-1.16l2.2-.53a19.73,19.73,0,0,1,24.4,19.17,19.68,19.68,0,0,1-2,8.57c-.43-.22-.92-.46-1.49-.69" style="fill:#533278"/><polygon points="31.91 188.1 22.03 188.1 6.2 175.23 6.2 188.1 0 188.1 0 158.84 6.2 158.84 6.2 171.03 20.85 158.84 29.76 158.84 12.24 172.62 31.91 188.1" style="fill:#533278"/><path d="M68.23,181.19q0,4.08-1.41,5.5c-.94.94-2.65,1.42-5.15,1.42H42.21c-2.5,0-4.21-.48-5.15-1.42s-1.41-2.78-1.41-5.5V165.76c0-2.73.47-4.56,1.41-5.51s2.65-1.41,5.15-1.41H61.67c2.5,0,4.21.47,5.15,1.41s1.41,2.78,1.41,5.51Zm-6.15-17.13H41.8V182.6H62.08Z" style="fill:#533278"/><polygon points="99.87 188.1 73.9 188.1 73.9 158.84 80.05 158.84 80.05 182.6 99.87 182.6 99.87 188.1" style="fill:#533278"/><path d="M139.89,188.11H133l-3.17-6.41H113.05L110,188.11h-6.14l15-29.27h6Zm-12.66-11.69-5.68-11.91-5.89,11.91Z" style="fill:#533278"/><path d="M172.36,181.19q0,4.08-1.44,5.5c-.95.94-2.68,1.42-5.17,1.42H149.41c-2.7,0-4.47-.53-5.33-1.59s-1.28-3.1-1.28-6.13l5.43-1.25v3.46h18.7v-6.69h-16.5q-3.74,0-5.14-1.42c-.94-.94-1.41-2.78-1.41-5.5v-3.23q0-4.09,1.41-5.5t5.14-1.42h15q3.8,0,5.18,1.44t1.38,5.59l-5.43,1.42v-3.35H149.26v6.3h16.49c2.49,0,4.22.47,5.17,1.42s1.44,2.78,1.44,5.5Z" style="fill:#533278"/></g></g></svg>
